<?xml version="1.0" encoding="iso-8859-1"?>
<svg id="Capa_1" enable-background="new 0 0 512 512" height="38" viewBox="0 0 512 512" width="38" xmlns="http://www.w3.org/2000/svg">
    <g>
        <path d="m496.962 169.175h-39.1c-4.636 0-9.013 2.133-11.863 5.781l-55.555 71.122v-61.903c0-8.284-6.733-15-15.038-15h-18.422l-6.002-102.346c-.465-7.931-7.049-14.124-15.013-14.124h-20.405v-6.894c0-8.719 7.084-15.812 15.792-15.812h165.604c8.305 0 15.038-6.716 15.038-15s-6.733-14.999-15.038-14.999h-165.604c-25.292 0-45.868 20.551-45.868 45.812v6.894h-20.404c-7.964 0-14.547 6.193-15.013 14.124l-6.002 102.346h-26.118c-4.633 0-9.007 2.13-11.856 5.773l-54.367 69.505v-60.278c0-8.284-6.733-15-15.038-15h-38.1c-4.866 0-9.431 2.349-12.252 6.303l-83.552 117.097c-1.812 2.54-2.786 5.58-2.786 8.697v195.727c0 8.284 6.733 15 15.038 15h481.923c8.305 0 15.038-6.716 15.038-15v-312.825c.001-8.284-6.732-15-15.037-15zm-225.877 53.054 4.664-79.524h49.554l1.788 30.496c-.583.54-1.141 1.112-1.639 1.747l-54.368 69.506v-22.225zm50.699-139.524 1.759 30h-46.035l1.759-30zm160.139 399.295h-451.846v-175.934l76.269-106.892h15.304v88.89c0 6.404 4.076 12.101 10.147 14.184 6.07 2.083 12.799.092 16.748-4.958l76.746-98.116h15.718v88.89c0 6.404 4.076 12.101 10.147 14.184 6.072 2.082 12.799.091 16.748-4.958l76.747-98.116h15.718v90.562c0 6.406 4.078 12.104 10.152 14.186 6.073 2.077 12.802.086 16.749-4.968l77.94-99.781h16.715v282.827z"/>
        <path d="m407.1 404.55h-30.303c-8.305 0-15.038 6.716-15.038 15s6.733 15 15.038 15h30.303c8.305 0 15.038-6.716 15.038-15s-6.733-15-15.038-15z"/>
        <path d="m407.1 344.55h-30.303c-8.305 0-15.038 6.716-15.038 15s6.733 15 15.038 15h30.303c8.305 0 15.038-6.716 15.038-15s-6.733-15-15.038-15z"/>
        <path d="m307.04 404.55h-30.304c-8.305 0-15.038 6.716-15.038 15s6.733 15 15.038 15h30.304c8.305 0 15.038-6.716 15.038-15s-6.732-15-15.038-15z"/>
        <path d="m307.04 344.55h-30.304c-8.305 0-15.038 6.716-15.038 15s6.733 15 15.038 15h30.304c8.305 0 15.038-6.716 15.038-15s-6.732-15-15.038-15z"/>
    </g>
</svg>
